<svg data-v-423bf9ae="" xmlns="http://www.w3.org/2000/svg" viewBox="0 0 547 95" class="iconLeft"><!----><!----><!----><g data-v-423bf9ae="" id="524947a4-87ce-4e02-bfd5-78474d6ea27c" fill="black" transform="matrix(4.885993591588033,0,0,4.885993591588033,113.39023006613314,7.705699862788158)"><path d="M3.35 4.37C1.54 4.37 0.60 5.11 0.60 6.37C0.60 8.93 5.26 7.84 5.26 9.59C5.26 10.54 4.05 10.70 3.47 10.70C2.11 10.70 1.58 10.00 1.51 9.28L0.42 9.28C0.49 10.51 1.51 11.59 3.46 11.59C5.19 11.59 6.31 10.85 6.31 9.49C6.31 6.86 1.65 7.95 1.65 6.27C1.65 5.59 2.23 5.26 3.32 5.26C4.49 5.26 4.94 5.75 5.03 6.36L6.09 6.36C5.96 5.33 5.19 4.37 3.35 4.37ZM13.38 7.29C13.38 6.05 14.24 5.32 15.27 5.32C16.25 5.32 17.01 6.10 17.01 7.28L17.01 11.48L18.06 11.48L18.06 7.25C18.06 5.49 16.81 4.37 15.47 4.37C14.08 4.37 13.34 5.31 13.06 5.78C12.61 4.89 11.76 4.37 10.84 4.37C9.70 4.37 9.03 4.98 8.71 5.54L8.71 4.48L7.66 4.48L7.66 11.48L8.71 11.48L8.71 7.29C8.71 6.05 9.56 5.32 10.60 5.32C11.58 5.32 12.33 6.10 12.33 7.28L12.33 11.48L13.38 11.48ZM22.76 4.37C20.72 4.37 19.38 5.98 19.38 7.98C19.38 9.98 20.72 11.59 22.76 11.59C23.93 11.59 24.75 11.12 25.27 10.36L25.27 11.48L26.32 11.48L26.32 4.48L25.27 4.48L25.27 5.61C24.75 4.86 23.93 4.37 22.76 4.37ZM22.90 10.64C21.35 10.64 20.43 9.42 20.43 7.98C20.43 6.54 21.35 5.32 22.90 5.32C24.46 5.32 25.33 6.54 25.33 7.98C25.33 9.42 24.46 10.64 22.90 10.64ZM31.77 4.37C30.03 4.37 29.33 5.73 29.19 6.20L29.19 4.48L28.14 4.48L28.14 11.48L29.19 11.48L29.19 8.40C29.19 6.86 30.14 5.42 31.71 5.42L31.84 5.42L31.84 4.37ZM34.78 11.48L34.78 5.40L36.39 5.40L36.39 4.48L34.78 4.48L34.78 1.97L33.73 1.97L33.73 4.48L32.30 4.48L32.30 5.40L33.73 5.40L33.73 11.48ZM44.07 11.59C46.12 11.59 47.46 9.98 47.46 7.98C47.46 5.98 46.12 4.37 44.07 4.37C42.91 4.37 42.08 4.84 41.57 5.60L41.57 4.48L40.52 4.48L40.52 14.25L41.57 14.25L41.57 10.35C42.08 11.10 42.91 11.59 44.07 11.59ZM43.93 5.32C45.49 5.32 46.41 6.54 46.41 7.98C46.41 9.42 45.49 10.64 43.93 10.64C42.38 10.64 41.51 9.42 41.51 7.98C41.51 6.54 42.38 5.32 43.93 5.32ZM51.98 10.64C50.43 10.64 49.45 9.42 49.45 7.98C49.45 6.54 50.43 5.32 51.98 5.32C52.98 5.32 53.69 5.88 54.01 6.68L55.15 6.68C54.74 5.32 53.49 4.37 51.84 4.37C49.74 4.37 48.40 5.98 48.40 7.98C48.40 9.98 49.74 11.59 51.84 11.59C53.49 11.59 54.74 10.64 55.15 9.28L54.01 9.28C53.69 10.08 52.98 10.64 51.98 10.64ZM62.58 10.64C61.03 10.64 60.05 9.42 60.05 7.98C60.05 6.54 61.03 5.32 62.58 5.32C63.57 5.32 64.29 5.88 64.61 6.68L65.74 6.68C65.34 5.32 64.09 4.37 62.44 4.37C60.34 4.37 59.00 5.98 59.00 7.98C59.00 9.98 60.34 11.59 62.44 11.59C64.09 11.59 65.34 10.64 65.74 9.28L64.61 9.28C64.29 10.08 63.57 10.64 62.58 10.64ZM70.00 4.37C67.96 4.37 66.61 5.98 66.61 7.98C66.61 9.98 67.96 11.59 70.00 11.59C71.16 11.59 71.99 11.12 72.51 10.36L72.51 11.48L73.56 11.48L73.56 4.48L72.51 4.48L72.51 5.61C71.99 4.86 71.16 4.37 70.00 4.37ZM70.14 10.64C68.59 10.64 67.66 9.42 67.66 7.98C67.66 6.54 68.59 5.32 70.14 5.32C71.69 5.32 72.56 6.54 72.56 7.98C72.56 9.42 71.69 10.64 70.14 10.64ZM77.81 4.37C76.01 4.37 75.07 5.11 75.07 6.37C75.07 8.93 79.73 7.84 79.73 9.59C79.73 10.54 78.51 10.70 77.94 10.70C76.58 10.70 76.05 10.00 75.98 9.28L74.89 9.28C74.96 10.51 75.98 11.59 77.92 11.59C79.66 11.59 80.78 10.85 80.78 9.49C80.78 6.86 76.12 7.95 76.12 6.27C76.12 5.59 76.69 5.26 77.78 5.26C78.96 5.26 79.41 5.75 79.49 6.36L80.56 6.36C80.43 5.33 79.66 4.37 77.81 4.37ZM85.25 10.64C83.83 10.64 82.92 9.65 82.77 8.40L88.63 8.40L88.63 7.98C88.63 5.98 87.30 4.37 85.16 4.37C83.02 4.37 81.69 5.98 81.69 7.98C81.69 9.98 83.09 11.59 85.23 11.59C86.90 11.59 87.93 10.72 88.42 9.46L87.28 9.46C86.90 10.16 86.23 10.64 85.25 10.64ZM85.16 5.32C86.51 5.32 87.35 6.23 87.54 7.42L82.78 7.42C82.98 6.23 83.82 5.32 85.16 5.32Z"></path></g><!----><g data-v-423bf9ae="" id="93335066-f980-45e2-b294-5eeb20d38121" transform="matrix(1.0255741543240018,0,0,1.0255741543240018,-2.8098854769948787,-3.4295384841610357)" stroke="none" fill="black"><path d="M45.237 35.777a17.482 17.482 0 0 1 5.97-1.064c8.285 0 15.213 5.746 17.074 13.461 16.936-11.912 16.958-36.295-4.834-43.012-10.413-3.614-36.262.31-28.328 10.81 5.514 7.299 8.464 14 10.118 19.805zM33.626 52.309c0-4.886 1.995-9.306 5.211-12.495C20.28 31.304-.586 43.197 4.15 65.311c1.926 10.858 17.988 31.477 23.281 19.421 3.764-8.589 8.299-14.516 12.655-18.821-3.941-3.223-6.46-8.12-6.46-13.602zM91.123 63.301c-9.971-.588-17.412-3.041-23.104-5.85-2.202 7.19-8.895 12.426-16.812 12.426-2.187 0-4.271-.418-6.204-1.147-1.174 20.092 17.085 35.164 36.003 23.134 9.512-5.578 23.256-27.799 10.117-28.563z"></path><path d="M64.125 52.309c0 7.119-5.774 12.904-12.918 12.904-7.131 0-12.916-5.785-12.916-12.904 0-7.146 5.785-12.917 12.916-12.917a12.903 12.903 0 0 1 12.918 12.917z"></path></g><!----></svg>