<?xml version="1.0" standalone="no"?>
<svg xmlns:xlink="http://www.w3.org/1999/xlink" id="wave" style="transform:rotate(180deg); transition: 0.3s" viewBox="0 0 1440 100" version="1.1" xmlns="http://www.w3.org/2000/svg"><defs><linearGradient id="sw-gradient-0" x1="0" x2="0" y1="1" y2="0"><stop stop-color="rgba(109, 87, 230, 1)" offset="0%"/><stop stop-color="rgba(96, 96, 255, 1)" offset="100%"/></linearGradient></defs><path style="transform:translate(0, 0px); opacity:1" fill="url(#sw-gradient-0)" d="M0,20L40,18.3C80,17,160,13,240,23.3C320,33,400,57,480,56.7C560,57,640,33,720,33.3C800,33,880,57,960,55C1040,53,1120,27,1200,18.3C1280,10,1360,20,1440,21.7C1520,23,1600,17,1680,13.3C1760,10,1840,10,1920,20C2000,30,2080,50,2160,56.7C2240,63,2320,57,2400,55C2480,53,2560,57,2640,56.7C2720,57,2800,53,2880,51.7C2960,50,3040,50,3120,48.3C3200,47,3280,43,3360,40C3440,37,3520,33,3600,38.3C3680,43,3760,57,3840,55C3920,53,4000,37,4080,26.7C4160,17,4240,13,4320,13.3C4400,13,4480,17,4560,25C4640,33,4720,47,4800,48.3C4880,50,4960,40,5040,38.3C5120,37,5200,43,5280,43.3C5360,43,5440,37,5520,31.7C5600,27,5680,23,5720,21.7L5760,20L5760,100L5720,100C5680,100,5600,100,5520,100C5440,100,5360,100,5280,100C5200,100,5120,100,5040,100C4960,100,4880,100,4800,100C4720,100,4640,100,4560,100C4480,100,4400,100,4320,100C4240,100,4160,100,4080,100C4000,100,3920,100,3840,100C3760,100,3680,100,3600,100C3520,100,3440,100,3360,100C3280,100,3200,100,3120,100C3040,100,2960,100,2880,100C2800,100,2720,100,2640,100C2560,100,2480,100,2400,100C2320,100,2240,100,2160,100C2080,100,2000,100,1920,100C1840,100,1760,100,1680,100C1600,100,1520,100,1440,100C1360,100,1280,100,1200,100C1120,100,1040,100,960,100C880,100,800,100,720,100C640,100,560,100,480,100C400,100,320,100,240,100C160,100,80,100,40,100L0,100Z"/></svg>